<?xml version="1.0" encoding="UTF-8"?>
<svg width="120" height="24" viewBox="0 0 120 24" fill="none" xmlns="http://www.w3.org/2000/svg">
  <path d="M11.3389 7.27427H24L19.9047 24H7.24359L11.3389 7.27427Z" fill="#3395FF"/>
  <path d="M6.29863 0H18.9597L17.173 5.52786H4.51187L6.29863 0Z" fill="#072654"/>
  <path d="M35.5316 8.55891H40.6868L38.5106 18.2357H33.3554L35.5316 8.55891ZM37.1092 4.96747C37.1092 6.08879 36.1642 6.98874 35.0429 6.98874C33.9216 6.98874 33.1355 6.08879 33.1355 4.96747C33.1355 3.84615 34.0805 2.9462 35.2018 2.9462C36.3231 2.9462 37.1092 3.84615 37.1092 4.96747Z" fill="#072654"/>
  <path d="M49.1521 8.55891L48.6471 10.7293C48.2021 9.89911 47.092 8.55891 44.9157 8.55891C41.5144 8.55891 39.0083 11.4085 39.0083 14.7171C39.0083 17.1065 40.6868 18.5577 42.8631 18.5577C44.5965 18.5577 45.6366 17.7775 46.2127 16.9973L45.8227 18.2357H50.978L53.8243 8.55891H49.1521ZM45.9182 14.7171C45.9182 15.9494 45.0821 16.7296 43.9608 16.7296C42.8395 16.7296 41.9845 15.9494 41.9845 14.7171C41.9845 13.4848 42.8205 12.7046 43.9418 12.7046C45.0631 12.7046 45.9182 13.4848 45.9182 14.7171Z" fill="#072654"/>
  <path d="M62.1236 8.55891L61.6186 10.7293C61.1736 9.89911 60.0635 8.55891 57.8872 8.55891C54.4859 8.55891 51.9798 11.4085 51.9798 14.7171C51.9798 17.1065 53.6583 18.5577 55.8346 18.5577C57.568 18.5577 58.6081 17.7775 59.1842 16.9973L58.7942 18.2357H63.9495L66.7958 8.55891H62.1236ZM58.8897 14.7171C58.8897 15.9494 58.0536 16.7296 56.9323 16.7296C55.811 16.7296 54.956 15.9494 54.956 14.7171C54.956 13.4848 55.792 12.7046 56.9133 12.7046C58.0346 12.7046 58.8897 13.4848 58.8897 14.7171Z" fill="#072654"/>
  <path d="M72.1487 13.1628L76.821 12.0615C76.246 10.4074 74.6874 8.55891 71.5726 8.55891C68.4579 8.55891 65.9518 10.9257 65.9518 14.3951C65.9518 17.4285 68.0658 18.5577 70.2421 18.5577C72.4184 18.5577 73.7696 17.4285 74.7524 15.9494L71.5726 14.3951C71.2477 15.0164 70.7427 15.6377 69.9566 15.6377C69.1705 15.6377 68.7255 15.0164 68.7255 14.3951C68.7255 13.1628 69.5858 11.8226 71.1902 11.8226C72.0143 11.8226 72.1487 12.5419 72.1487 13.1628Z" fill="#072654"/>
  <path d="M84.7363 8.55891L84.2313 10.7293C83.7863 9.89911 82.6762 8.55891 80.4999 8.55891C77.0986 8.55891 74.5925 11.4085 74.5925 14.7171C74.5925 17.1065 76.271 18.5577 78.4473 18.5577C80.1807 18.5577 81.2208 17.7775 81.7969 16.9973L81.4069 18.2357H86.5622L89.4085 8.55891H84.7363ZM81.5024 14.7171C81.5024 15.9494 80.6663 16.7296 79.545 16.7296C78.4237 16.7296 77.5687 15.9494 77.5687 14.7171C77.5687 13.4848 78.4047 12.7046 79.526 12.7046C80.6473 12.7046 81.5024 13.4848 81.5024 14.7171Z" fill="#072654"/>
  <path d="M97.7088 8.55891L97.2038 10.7293C96.7588 9.89911 95.6487 8.55891 93.4724 8.55891C90.0711 8.55891 87.565 11.4085 87.565 14.7171C87.565 17.1065 89.2435 18.5577 91.4198 18.5577C93.1532 18.5577 94.1933 17.7775 94.7694 16.9973L94.3794 18.2357H99.5347L102.381 8.55891H97.7088ZM94.4749 14.7171C94.4749 15.9494 93.6388 16.7296 92.5175 16.7296C91.3962 16.7296 90.5412 15.9494 90.5412 14.7171C90.5412 13.4848 91.3772 12.7046 92.4985 12.7046C93.6198 12.7046 94.4749 13.4848 94.4749 14.7171Z" fill="#072654"/>
  <path d="M102.147 18.2357H107.302L110.149 8.55891H104.993L102.147 18.2357ZM103.724 7.27427C103.724 8.39559 102.779 9.29554 101.658 9.29554C100.537 9.29554 99.7505 8.39559 99.7505 7.27427C99.7505 6.15295 100.696 5.253 101.817 5.253C102.938 5.253 103.724 6.15295 103.724 7.27427Z" fill="#072654"/>
  <path d="M116.719 8.55891C113.824 8.55891 111.023 10.9257 111.023 14.3951C111.023 17.1065 112.702 18.5577 115.183 18.5577C116.304 18.5577 117.344 18.2357 118.075 17.4555L117.685 18.2357H120L120.973 14.3951L121.478 12.3835L122.851 8.55891H117.696L117.306 9.89911C116.666 9.11889 115.821 8.55891 114.7 8.55891H116.719ZM116.719 12.7046C117.84 12.7046 118.695 13.4848 118.695 14.7171C118.695 15.9494 117.859 16.7296 116.738 16.7296C115.617 16.7296 114.762 15.9494 114.762 14.7171C114.762 13.4848 115.598 12.7046 116.719 12.7046Z" fill="#072654"/>
</svg> 